<svg width="99" height="98" viewBox="0 0 99 98" fill="none" xmlns="http://www.w3.org/2000/svg">
<ellipse cx="49.5" cy="48.8789" rx="49.5" ry="48.8789" fill="#86CA86" fill-opacity="0.13"/>
<path fill-rule="evenodd" clip-rule="evenodd" d="M77.25 38.1875C77.2502 40.5577 76.3525 42.84 74.7378 44.5751C73.123 46.3102 70.911 47.3692 68.5469 47.5391L63.7797 52.3047C65.1156 54.5656 65.7172 57.5656 66.0125 60.9016C66.3125 64.2906 66.3125 68.2531 66.3125 72.5078V74.125H63.1875V72.5625C63.1875 68.2438 63.1875 64.4141 62.9 61.1781C62.6484 58.3438 62.1891 56.1359 61.4266 54.5328C59.5562 54.2828 57.8484 53.3422 56.3859 52.1828C54.6609 50.8172 53.1266 49.0344 51.8641 47.3156C50.6519 45.6507 49.5531 43.9061 48.575 42.0938C46.475 43.5469 43.6453 44.4375 40.5312 44.4375C34.0594 44.4375 28.8125 40.5906 28.8125 35.8438C28.8125 31.4797 33.2469 27.875 38.9922 27.3234C40.9953 23.6437 46.5234 21 53.0312 21C60.3875 21 66.4937 24.3797 67.6703 28.8141L67.875 28.8125C70.3614 28.8125 72.746 29.8002 74.5041 31.5584C76.2623 33.3165 77.25 35.7011 77.25 38.1875ZM58.5422 39.0828C56.7396 39.5309 54.8887 39.755 53.0312 39.75C52.3531 39.75 51.6844 39.7219 51.0312 39.6656L50.9125 39.8344C51.0812 40.1594 51.3031 40.5797 51.575 41.0641C52.4682 42.6718 53.464 44.2203 54.5562 45.7V45.4719C56.2828 45.4719 58.0953 44.5391 59.5984 43.4281C59.7141 43.3438 59.8266 43.2594 59.9344 43.1734C59.1562 41.9378 58.6793 40.5366 58.5422 39.0828ZM62.0203 45.5094C62.8157 46.1464 63.7098 46.6494 64.6672 46.9984L60.5734 51.0922C59.8469 50.7984 59.0953 50.3422 58.325 49.7328C57.7726 49.2908 57.2491 48.8138 56.7578 48.3047C58.6063 47.8266 60.2422 46.8375 61.4547 45.9438C61.6516 45.7984 61.8406 45.6531 62.0203 45.5094Z" fill="#4ECB71"/>
<path d="M35.85 55.3782C36.886 55.3773 37.8792 54.965 38.6112 54.2318C39.3432 53.4987 39.754 52.5048 39.7531 51.4688C39.7523 50.4328 39.34 49.4396 38.6068 48.7076C37.8737 47.9756 36.8798 47.5648 35.8438 47.5657C34.8077 47.5665 33.8145 47.9788 33.0825 48.712C32.7201 49.075 32.4327 49.5059 32.2368 49.98C32.0408 50.454 31.9402 50.9621 31.9406 51.475C31.941 51.988 32.0425 52.4959 32.2392 52.9697C32.4359 53.4434 32.7239 53.8738 33.0869 54.2363C33.8201 54.9682 34.814 55.379 35.85 55.3782ZM24.9125 61.6282C25.9485 61.6273 26.9417 61.215 27.6737 60.4818C28.4057 59.7487 28.8165 58.7548 28.8156 57.7188C28.8148 56.6828 28.4025 55.6896 27.6693 54.9576C26.9362 54.2256 25.9423 53.8148 24.9063 53.8157C23.8702 53.8165 22.877 54.2288 22.145 54.962C21.4131 55.6951 21.0023 56.689 21.0031 57.725C21.004 58.7611 21.4163 59.7543 22.1494 60.4863C22.8826 61.2182 23.8765 61.629 24.9125 61.6282ZM55.3781 57.7188C55.3785 58.2318 55.2779 58.7398 55.082 59.2139C54.886 59.688 54.5987 60.1188 54.2362 60.4818C53.8738 60.8449 53.4434 61.1329 52.9696 61.3296C52.4959 61.5263 51.988 61.6278 51.475 61.6282C50.439 61.629 49.4451 61.2182 48.712 60.4863C47.9788 59.7543 47.5665 58.7611 47.5656 57.725C47.5652 57.2121 47.6658 56.704 47.8618 56.23C48.0577 55.7559 48.3451 55.325 48.7075 54.962C49.4395 54.2288 50.4328 53.8165 51.4688 53.8157C52.5048 53.8148 53.4987 54.2256 54.2318 54.9576C54.965 55.6896 55.3773 56.6828 55.3781 57.7188ZM35.0625 56.9375C35.8913 56.9375 36.6862 57.2668 37.2722 57.8528C37.8583 58.4389 38.1875 59.2337 38.1875 60.0625V63.1875H41.3125C42.1413 63.1875 42.9362 63.5168 43.5222 64.1028C44.1083 64.6889 44.4375 65.4837 44.4375 66.3125C44.4375 67.1414 44.1083 67.9362 43.5222 68.5223C42.9362 69.1083 42.1413 69.4375 41.3125 69.4375H35.0625C34.2337 69.4375 33.4388 69.1083 32.8528 68.5223C32.2667 67.9362 31.9375 67.1414 31.9375 66.3125V60.0625C31.9375 59.2337 32.2667 58.4389 32.8528 57.8528C33.4388 57.2668 34.2337 56.9375 35.0625 56.9375ZM27.25 66.3125C27.25 65.4837 26.9208 64.6889 26.3347 64.1028C25.7487 63.5168 24.9538 63.1875 24.125 63.1875C23.2962 63.1875 22.5013 63.5168 21.9153 64.1028C21.3292 64.6889 21 65.4837 21 66.3125V74.125C21 74.9538 21.3292 75.7487 21.9153 76.3348C22.5013 76.9208 23.2962 77.25 24.125 77.25H30.375C31.2038 77.25 31.9987 76.9208 32.5847 76.3348C33.1708 75.7487 33.5 74.9538 33.5 74.125C33.5 73.2962 33.1708 72.5014 32.5847 71.9153C31.9987 71.3293 31.2038 71 30.375 71H27.25V66.3125ZM52.25 63.1875C51.4212 63.1875 50.6263 63.5168 50.0403 64.1028C49.4542 64.6889 49.125 65.4837 49.125 66.3125V71H46C45.1712 71 44.3763 71.3293 43.7903 71.9153C43.2042 72.5014 42.875 73.2962 42.875 74.125C42.875 74.9538 43.2042 75.7487 43.7903 76.3348C44.3763 76.9208 45.1712 77.25 46 77.25H52.25C53.0788 77.25 53.8737 76.9208 54.4597 76.3348C55.0458 75.7487 55.375 74.9538 55.375 74.125V66.3125C55.375 65.4837 55.0458 64.6889 54.4597 64.1028C53.8737 63.5168 53.0788 63.1875 52.25 63.1875Z" fill="#4ECB71"/>
</svg>
