<svg width="99" height="98" viewBox="0 0 99 98" fill="none" xmlns="http://www.w3.org/2000/svg">
<ellipse cx="49.5" cy="48.8789" rx="49.5" ry="48.8789" fill="#FCC8B2" fill-opacity="0.32"/>
<path d="M46.5154 73.3726H31.5926C30.747 73.3726 30.0376 73.0884 29.4646 72.5199C28.8916 71.9514 28.606 71.2487 28.608 70.4117V49.6856H23.5343C22.8379 49.6856 22.3653 49.3648 22.1166 48.7233C21.8679 48.0818 22.0171 47.539 22.5643 47.0948L47.4854 24.8142C48.0326 24.2714 48.7041 24 49.5 24C50.2959 24 50.9674 24.2714 51.5146 24.8142L61.4383 33.6969V28.9595C61.4383 28.1206 61.7248 27.4169 62.2978 26.8484C62.8709 26.2799 63.5792 25.9966 64.4228 25.9986H67.4074C68.253 25.9986 68.9624 26.2828 69.5354 26.8513C70.1084 27.4198 70.394 28.1225 70.392 28.9595V41.6912L76.4357 47.0948C76.9829 47.539 77.1321 48.0818 76.8834 48.7233C76.6347 49.3648 76.1621 49.6856 75.4657 49.6856H70.392V70.4117C70.392 71.2506 70.1055 71.9543 69.5324 72.5228C68.9594 73.0913 68.2511 73.3746 67.4074 73.3726H52.4846V55.6073H46.5154V73.3726ZM34.5772 67.4509H40.5463V52.6465C40.5463 51.8076 40.8328 51.1039 41.4059 50.5354C41.9789 49.9669 42.6872 49.6836 43.5309 49.6856H55.4691C56.3148 49.6856 57.0241 49.9698 57.5971 50.5383C58.1702 51.1068 58.4557 51.8095 58.4537 52.6465V67.4509H64.4228V44.356L49.5 31.0321L34.5772 44.356V67.4509ZM43.5309 43.8379H55.4691C55.4691 42.2587 54.8722 40.9629 53.6784 39.9502C52.4846 38.9376 51.0918 38.4323 49.5 38.4343C47.9082 38.4343 46.5154 38.9406 45.3216 39.9532C44.1278 40.9658 43.5309 42.2607 43.5309 43.8379Z" fill="#FF4D00" fill-opacity="0.56"/>
</svg>
