<svg width="99" height="98" viewBox="0 0 99 98" fill="none" xmlns="http://www.w3.org/2000/svg">
<ellipse cx="49.5" cy="48.8789" rx="49.5" ry="48.8789" fill="#98AAE1" fill-opacity="0.15"/>
<path fill-rule="evenodd" clip-rule="evenodd" d="M49.4271 25.6875C43.3962 25.6875 37.6123 28.0833 33.3478 32.3478C29.0833 36.6123 26.6875 42.3962 26.6875 48.4271C26.6875 52.0679 27.543 55.5046 29.0598 58.5505C29.6695 59.7748 29.903 61.235 29.5195 62.6731L28.0544 68.1429C27.9928 68.3721 27.9927 68.6134 28.054 68.8426C28.1153 69.0719 28.2358 69.2809 28.4034 69.4488C28.5711 69.6167 28.78 69.7376 29.0091 69.7992C29.2382 69.8608 29.4796 69.861 29.7088 69.7998L35.1835 68.3347C36.567 67.9806 38.0322 68.1441 39.3037 68.7944C42.4484 70.3599 45.9143 71.1721 49.4271 71.1667C55.458 71.1667 61.2419 68.7709 65.5064 64.5064C69.7709 60.2419 72.1667 54.458 72.1667 48.4271C72.1667 42.3962 69.7709 36.6123 65.5064 32.3478C61.2419 28.0833 55.458 25.6875 49.4271 25.6875ZM23 48.4271C23 33.832 34.832 22 49.4271 22C64.0222 22 75.8542 33.832 75.8542 48.4271C75.8542 63.0222 64.0222 74.8542 49.4271 74.8542C45.2037 74.8542 41.2064 73.861 37.6591 72.0959C37.1918 71.8471 36.65 71.7772 36.1349 71.8993L30.6626 73.362C26.9161 74.365 23.4892 70.938 24.4922 67.1915L25.9574 61.7193C26.0794 61.2042 26.0095 60.6623 25.7607 60.1951C23.9402 56.5397 22.9951 52.5108 23 48.4271ZM49.4271 36.75C49.9161 36.75 50.3851 36.9443 50.7308 37.29C51.0766 37.6358 51.2709 38.1048 51.2709 38.5938V38.6183C53.948 39.2944 56.1875 41.4036 56.1875 44.329C56.1875 44.818 55.9933 45.287 55.6475 45.6328C55.3017 45.9785 54.8328 46.1728 54.3438 46.1728C53.8548 46.1728 53.3858 45.9785 53.04 45.6328C52.6943 45.287 52.5 44.818 52.5 44.329C52.5 43.385 51.4528 42.0772 49.4271 42.0772C47.4014 42.0772 46.3542 43.385 46.3542 44.329C46.3542 45.273 47.4014 46.5833 49.4271 46.5833C52.8319 46.5833 56.1875 48.9433 56.1875 52.5251C56.1875 55.4505 53.948 57.5623 51.2709 58.2358V58.2604C51.2709 58.7494 51.0766 59.2184 50.7308 59.5641C50.3851 59.9099 49.9161 60.1042 49.4271 60.1042C48.9381 60.1042 48.4691 59.9099 48.1234 59.5641C47.7776 59.2184 47.5834 58.7494 47.5834 58.2604V58.2358C44.9062 57.5623 42.6667 55.4505 42.6667 52.5251C42.6667 52.0361 42.8609 51.5672 43.2067 51.2214C43.5525 50.8756 44.0214 50.6814 44.5104 50.6814C44.9994 50.6814 45.4684 50.8756 45.8142 51.2214C46.1599 51.5672 46.3542 52.0361 46.3542 52.5251C46.3542 53.4691 47.4014 54.777 49.4271 54.777C51.4528 54.777 52.5 53.4691 52.5 52.5251C52.5 51.5811 51.4528 50.2708 49.4271 50.2708C46.0223 50.2708 42.6667 47.9108 42.6667 44.329C42.6667 41.4036 44.9062 39.2944 47.5834 38.6183V38.5938C47.5834 38.1048 47.7776 37.6358 48.1234 37.29C48.4691 36.9443 48.9381 36.75 49.4271 36.75Z" fill="#699BF7"/>
</svg>
