<svg width="99" height="98" viewBox="0 0 99 98" fill="none" xmlns="http://www.w3.org/2000/svg">
<ellipse cx="49.5" cy="48.8789" rx="49.5" ry="48.8789" fill="#B770E6" fill-opacity="0.14"/>
<path d="M67.1247 56.3333H31.8747V32.8333H67.1247M67.1247 28.9166H31.8747C29.7009 28.9166 27.958 30.6595 27.958 32.8333V56.3333C27.958 57.3721 28.3707 58.3683 29.1052 59.1028C29.8397 59.8373 30.8359 60.25 31.8747 60.25H45.583V64.1666H41.6663V68.0833H57.333V64.1666H53.4163V60.25H67.1247C69.2984 60.25 71.0413 58.507 71.0413 56.3333V32.8333C71.0413 31.7945 70.6287 30.7983 69.8942 30.0638C69.1597 29.3293 68.1634 28.9166 67.1247 28.9166ZM55.3747 35.7708L54.1605 38.4537L51.458 39.6875L54.1605 40.9212L55.3747 43.6041L56.6084 40.9212L59.2913 39.6875L56.6084 38.4537L55.3747 35.7708ZM46.5622 39.6875L44.4276 44.407L39.708 46.5416L44.4276 48.6762L46.5622 53.3958L48.7163 48.6762L53.4163 46.5416L48.7163 44.407L46.5622 39.6875Z" fill="#9747FF"/>
</svg>
